<?xml version="1.0" encoding="UTF-8"?>
<!DOCTYPE svg PUBLIC "-//W3C//DTD SVG 1.1//EN" "http://www.w3.org/Graphics/SVG/1.1/DTD/svg11.dtd">
<svg xmlns="http://www.w3.org/2000/svg" version="1.1" width="500px" height="500px" style="shape-rendering:geometricPrecision; text-rendering:geometricPrecision; image-rendering:optimizeQuality; fill-rule:evenodd; clip-rule:evenodd" xmlns:xlink="http://www.w3.org/1999/xlink">
<g><path style="opacity:0.997" fill="#000000" d="M 40.5,79.5 C 180.5,79.3333 320.5,79.5 460.5,80C 471.267,88.5666 473.767,99.0666 468,111.5C 465.795,114.04 463.295,116.207 460.5,118C 319.5,118.667 178.5,118.667 37.5,118C 27.4957,109.485 25.329,99.3182 31,87.5C 33.772,84.2166 36.9386,81.5499 40.5,79.5 Z"/></g>
<g><path style="opacity:0.996" fill="#000000" d="M 40.5,229.5 C 180.5,229.333 320.5,229.5 460.5,230C 471.267,238.567 473.767,249.067 468,261.5C 465.408,264.762 462.241,267.262 458.5,269C 318.5,269.667 178.5,269.667 38.5,269C 27.7297,260.421 25.2297,249.921 31,237.5C 33.772,234.217 36.9386,231.55 40.5,229.5 Z"/></g>
<g><path style="opacity:0.997" fill="#000000" d="M 40.5,379.5 C 180.5,379.333 320.5,379.5 460.5,380C 471.267,388.567 473.767,399.067 468,411.5C 465.795,414.04 463.295,416.207 460.5,418C 319.5,418.667 178.5,418.667 37.5,418C 27.4957,409.485 25.329,399.318 31,387.5C 33.772,384.217 36.9386,381.55 40.5,379.5 Z"/></g>
</svg>
